<?xml version="1.0" encoding="utf-8"?>
<svg version="1.1" id="Capa_1" xmlns="http://www.w3.org/2000/svg" xmlns:xlink="http://www.w3.org/1999/xlink" x="0px" y="0px"
	 viewBox="0 0 248 84" style="enable-background:new 0 0 248 84;" xml:space="preserve">
<style type="text/css">
	.st0{fill-rule:evenodd;clip-rule:evenodd;fill:#CDDE00;}
	.st1{fill-rule:evenodd;clip-rule:evenodd;fill:#FFFFFF;}
</style>
<title>Logo Flyadeal</title>
<path id="Combined-Shape" class="st0" d="M41.2,58.4c2.9,0,4.6,1.4,4.6,4.1s-1.2,5.7-2.1,6.9c-22.5,0-35.2,2.9-39.8,2.9
	C1,72.3,0,70.6,0,67.2c0-3.8,1.7-6.9,1.7-6.9C23,60.3,33.6,58.4,41.2,58.4z M47.7,41.7c2.9,0,4.6,1.4,4.6,4.1c0,2.7-1.2,5.7-2.1,6.9
	c-22.5,0-35.2,2.9-39.8,2.9c-2.9,0-3.9-1.7-3.9-5.1c0-3.8,1.7-6.9,1.7-6.9C29.5,43.6,40.1,41.7,47.7,41.7z"/>
<path class="st1" d="M98.7,42c0.3,0,0.5,0.2,0.6,0.4l6.1,21.3l5.4-18.9c0.5-1.8,1.7-2.8,3.7-2.8h4.7c0.4,0,0.7,0.4,0.5,0.8L108.2,77
	c-0.9,2.5-2.1,4.3-3.5,5.4c-1.4,0.9-3.7,1.4-6.8,1.4h-1.6c-0.2-0.1-0.5-0.1-0.9-0.2c-0.3,0-0.6-0.1-0.9-0.1v-5.8
	c0-0.3,0.3-0.6,0.6-0.6h1.6c1.5,0,2.7-0.4,3.6-1.1s1.1-1.9,0.5-3.5L90.6,42.8c-0.1-0.4,0.1-0.8,0.5-0.8H98.7z M132.7,41.3
	c4.3,0,7.5,0.7,9.7,2.2s3.3,3.7,3.3,6.5v10.5c0,3.1-0.6,5.5-1.7,7.2c-1.1,1.7-2.4,3-4,3.7c-1.6,0.8-3.3,1.4-5.1,1.6
	s-3.4,0.3-4.8,0.3c-2.8,0-5.2-0.8-7.3-2.2c-2.1-1.5-3.1-4-3.1-7.4c0-3.2,0.9-5.5,2.8-6.9s4.3-2.3,7.2-2.8c0.4,0,0.8-0.1,1.4-0.2
	c0.5-0.1,1.2-0.2,1.8-0.3c3.4-0.5,5.1-1.5,5.1-3c0-1.2-0.6-1.9-1.8-2.2s-2.3-0.5-3.3-0.5c-1.1,0-2,0.2-2.9,0.5
	c-0.7,0.3-1.3,0.7-1.7,1.4c-0.1,0.2-0.3,0.3-0.5,0.3h-6.7c-0.4,0-0.6-0.3-0.6-0.7c0.4-2.1,1.5-3.8,3.1-5.2
	C125.9,42.2,128.8,41.3,132.7,41.3z M173.4,32.9c1.1,0,2,0.4,2.8,1.2s1.2,1.7,1.2,2.7v22.5c0,5.5-1.6,9.1-4.7,11.1
	c-3.2,1.9-6.6,2.9-10.3,2.9c-2,0-4-0.3-5.9-1s-3.5-1.7-4.6-3.2c-2.2-2.8-3.3-6.7-3.3-11.6c0-4.8,1.1-8.7,3.3-11.6
	c2.3-3,5.3-4.5,8.9-4.5c1.9,0,3.6,0.4,5.1,1.2c1.5,0.9,2.8,2.1,3.7,3.6V33.5c0-0.3,0.3-0.6,0.6-0.6H173.4z M193.6,41.3
	c4.6,0,8.2,1.4,10.7,4.2s3.7,6.8,3.7,11.9v1.3c0,0.4-0.1,0.8-0.4,0.8H188c0.1,2.4,0.7,4.2,1.7,5.3c1,1.2,2.5,1.8,4.5,1.8
	c1.3,0,2.4-0.3,3.3-0.8c0.2-0.1,0.4-0.2,0.6-0.4c0.2-0.2,0.4-0.4,0.6-0.6c0.1-0.2,0.4-0.5,0.9-0.9s1.2-0.6,2.1-0.6h5
	c0.4,0,0.7,0.4,0.6,0.7c-0.9,2.9-2.4,5.1-4.6,6.6c-2.4,1.8-5.4,2.7-9,2.7c-4.4,0-7.8-1.4-10.3-4.3c-2.5-2.8-3.7-6.7-3.7-11.9
	c0-4.9,1.2-8.8,3.6-11.5C185.8,42.7,189.2,41.3,193.6,41.3z M222.9,41.3c4.3,0,7.5,0.7,9.7,2.2s3.3,3.7,3.3,6.5v10.5
	c0,3.1-0.6,5.5-1.7,7.2c-1.1,1.7-2.4,3-4,3.7c-1.6,0.8-3.3,1.4-5.1,1.6s-3.4,0.3-4.8,0.3c-2.8,0-5.2-0.8-7.3-2.2
	c-2.1-1.5-3.1-4-3.1-7.4c0-3.2,0.9-5.5,2.8-6.9c1.9-1.4,4.3-2.3,7.2-2.8c0.4,0,0.8-0.1,1.4-0.2c0.5-0.1,1.2-0.2,1.8-0.3
	c3.4-0.5,5.1-1.5,5.1-3c0-1.2-0.6-1.9-1.8-2.2s-2.3-0.5-3.3-0.5c-1.1,0-2,0.2-2.9,0.5c-0.7,0.3-1.3,0.7-1.7,1.4
	c-0.1,0.2-0.3,0.3-0.5,0.3h-6.7c-0.4,0-0.6-0.3-0.6-0.7c0.4-2.1,1.5-3.8,3.1-5.2C216.1,42.2,219.1,41.3,222.9,41.3z M72.4,32.9
	c0.8,0,1.4,0,1.8,0.1c0.6,0,1,0,1.4,0.1c0.3,0,0.5,0.3,0.5,0.6v5.2c0,0.3-0.3,0.6-0.6,0.6H74c-1.1,0-1.8,0.2-2.3,0.5
	c-0.4,0.3-0.6,0.9-0.6,1.8v2.1h4.4c0.3,0,0.6,0.3,0.6,0.6v1.1c0,1.2-0.4,2.1-1.2,2.8c-0.8,0.7-1.7,1.1-2.7,1.1H71v22.6
	c0,0.3-0.3,0.6-0.6,0.6h-6.7c-0.3,0-0.6-0.3-0.6-0.6v-31c0-2.8,0.7-4.8,2.2-6.2C66.9,33.5,69.2,32.9,72.4,32.9z M83.5,33
	c1.1,0,2,0.4,2.8,1.1c0.8,0.7,1.2,1.6,1.2,2.7v35.3c0,0.3-0.3,0.6-0.6,0.6H80c-0.3,0-0.6-0.3-0.6-0.6V33.6c0-0.3,0.3-0.6,0.6-0.6
	H83.5z M243.1,33c1.1,0,2,0.4,2.8,1.1c0.8,0.7,1.2,1.6,1.2,2.7v35.3c0,0.3-0.3,0.6-0.6,0.6h-6.9c-0.3,0-0.6-0.3-0.6-0.6V33.6
	c0-0.3,0.3-0.6,0.6-0.6H243.1z M138.2,57.2c-1.1,0.5-2.6,1-4.5,1.5l-2.7,0.6c-1.4,0.4-2.4,0.9-3,1.5c-0.5,0.8-0.8,1.7-0.8,2.5
	c0,1.2,0.3,2.1,1,2.8c0.7,0.6,1.7,0.9,3,0.9c2.2,0,3.8-0.6,5.1-1.8c1.2-1.2,1.8-2.9,1.8-5.1L138.2,57.2L138.2,57.2z M228.5,57.2
	c-1.1,0.5-2.6,1-4.5,1.5l-2.7,0.6c-1.4,0.4-2.4,0.9-3,1.5c-0.5,0.8-0.8,1.7-0.8,2.5c0,1.2,0.3,2.1,1,2.8c0.7,0.6,1.7,0.9,3,0.9
	c2.2,0,3.8-0.6,5.1-1.8c1.2-1.2,1.8-2.9,1.8-5.1L228.5,57.2L228.5,57.2z M162.7,48.2c-2,0-3.6,0.8-4.7,2.4c-1.2,1.5-1.7,3.7-1.7,6.5
	c0,3.1,0.6,5.4,1.7,7c1.2,1.6,2.8,2.4,5,2.4c2.1,0,3.7-0.8,4.8-2.4s1.6-4,1.6-7c0-2.8-0.6-5-1.7-6.6C166.5,49,164.8,48.2,162.7,48.2
	z M193.8,48c-1.7,0-3.1,0.5-4.2,1.6c-1.1,1.1-1.7,2.6-1.7,4.6h11.8c-0.2-2.1-0.7-3.6-1.6-4.6C197.1,48.5,195.6,48,193.8,48z
	 M198.2,17.3c0.2,0,0.3,0.1,0.3,0.3l0,0v8.8c0,1.2-0.2,2.2-0.6,3.1c-0.4,0.9-0.9,1.6-1.5,2.1s-1.4,0.9-2.3,1.2s-1.8,0.4-2.9,0.4
	c-1,0-1.9-0.1-2.8-0.4c-0.9-0.3-1.7-0.7-2.3-1.2c-0.7-0.5-1.2-1.3-1.6-2.1c-0.4-0.9-0.6-1.9-0.6-3.1c0-1,0.1-1.9,0.4-3
	c0.3-1,0.7-1.9,1.2-2.7c0.1-0.1,0.2-0.1,0.4-0.1l0,0l3.1,1c0.1,0,0.1,0.1,0.2,0.2c0,0.1,0,0.1,0,0.2c-0.3,0.5-0.5,1.1-0.7,1.8
	c-0.2,0.7-0.3,1.4-0.3,2.3c0,0.7,0.1,1.2,0.3,1.7s0.4,0.8,0.8,1.1c0.3,0.3,0.7,0.5,1.1,0.6c0.4,0.1,0.8,0.2,1.2,0.2
	c1,0,1.7-0.3,2.3-0.8c0.6-0.6,0.8-1.4,0.8-2.6l0,0v-6.9c0-1.1,0.9-2.1,2.1-2.1l0,0H198.2z M145,7.5c0.2,0,0.3,0.1,0.3,0.3l0,0V22
	c0,0.5,0.2,0.9,0.6,1.1c0.4,0.3,0.9,0.4,1.6,0.4l0,0h0.7l0,0l0,0l0,0h1.8c0.5,0,0.8-0.1,1.1-0.3c0.2-0.2,0.3-0.6,0.3-1.2l0,0v-5
	c0-1.1,0.9-2.1,2.1-2.1l0,0h1.7c0.2,0,0.3,0.1,0.3,0.3l0,0v8.2c0,1.2-0.3,2.2-0.8,2.7c-0.5,0.6-1.4,0.9-2.6,0.9l0,0h-3.9l0,0l0,0
	c-0.6,0-1.2-0.1-1.6-0.2c-0.5-0.1-0.9-0.3-1.2-0.7l0,0v0.3c0,1.2-0.2,2.2-0.6,3.1c-0.4,0.9-0.9,1.6-1.5,2.1
	c-0.7,0.5-1.4,0.9-2.3,1.2c-0.9,0.3-1.8,0.4-2.9,0.4c-1,0-1.9-0.1-2.8-0.4c-0.9-0.3-1.7-0.7-2.3-1.2c-0.7-0.5-1.2-1.3-1.6-2.1
	c-0.4-0.9-0.6-1.9-0.6-3.1c0-1,0.1-1.9,0.4-2.9c0.3-1,0.7-1.9,1.2-2.8c0.1-0.1,0.2-0.1,0.4-0.1l0,0l3.1,1c0.1,0,0.1,0.1,0.2,0.2
	c0,0.1,0,0.1,0,0.2c-0.3,0.5-0.5,1.1-0.7,1.8c-0.2,0.7-0.3,1.4-0.3,2.3c0,0.7,0.1,1.2,0.3,1.7s0.4,0.8,0.8,1.1
	c0.3,0.3,0.7,0.5,1.1,0.6c0.4,0.1,0.8,0.2,1.2,0.2c1,0,1.7-0.3,2.3-0.8c0.6-0.6,0.8-1.4,0.8-2.6l0,0V9.5c0-1.1,0.9-2.1,2.1-2.1l0,0
	L145,7.5L145,7.5z M233.6,7.5c0.2,0,0.3,0.1,0.3,0.3l0,0v8.1c0.9-0.4,1.8-0.7,2.9-1c1-0.3,2.1-0.4,3.3-0.4c2.3,0,4.1,0.6,5.3,1.7
	s1.8,2.9,1.8,5.2c0,1.2-0.1,2.1-0.3,2.8c-0.2,0.7-0.6,1.3-1,1.7c-0.5,0.4-1.1,0.7-1.9,0.9c-0.8,0.2-1.7,0.2-2.8,0.2l0,0h-6.8
	c-0.8,0-1.3-0.2-1.6-0.6c-0.3,0.3-0.7,0.5-1.2,0.5c-0.5,0.1-1.1,0.1-1.8,0.1l0,0h-2.6l0,0l0,0c-0.7,0-1.4-0.1-1.9-0.3
	c-0.5-0.2-1-0.6-1.3-1.2c-0.3,0.6-0.8,1-1.4,1.2c-0.6,0.2-1.4,0.3-2.5,0.3l0,0h-3l0,0l0,0c-0.6,0-1.2-0.1-1.6-0.2
	c-0.5-0.1-0.9-0.4-1.2-0.8l0,0v0.5c0,2.2-0.4,3.8-1.3,4.8c-0.8,1-2.3,1.6-4.3,1.6l0,0h-1.3c-0.2,0-0.3-0.1-0.3-0.3l0,0v-2.9
	c0-0.2,0.1-0.3,0.3-0.3l0,0h0.6c0.5,0,0.9-0.1,1.2-0.2c0.3-0.2,0.5-0.4,0.6-0.7c0.1-0.3,0.2-0.7,0.3-1.2c0-0.5,0.1-1,0.1-1.6l0,0V17
	c0-1.1,0.9-2.1,2.1-2.1l0,0h1.7c0.2,0,0.3,0.1,0.3,0.3l0,0V22c0,0.5,0.2,0.9,0.6,1.1c0.4,0.3,0.9,0.4,1.6,0.4l0,0h0.6l0,0l0,0l0,0
	h1.8c0.6,0,1-0.2,1.2-0.5c0.2-0.4,0.2-1,0.2-1.8l0,0V17c0-1.1,0.9-2.1,2.1-2.1l0,0h1.7c0.2,0,0.3,0.1,0.3,0.3l0,0V22
	c0,0.5,0.2,0.9,0.6,1.1c0.4,0.3,0.9,0.4,1.6,0.4l0,0h0.7l0,0l0,0h1.2c0.3,0,0.6-0.1,0.8-0.2c0.2-0.2,0.3-0.4,0.4-0.6
	c0.1-0.3,0.2-0.6,0.2-0.9c0-0.4,0-0.7,0-1.1l0,0V9.9c0-1.5,0.8-2.4,2.4-2.4l0,0C232.3,7.5,233.6,7.5,233.6,7.5z M225.8,29.5
	c0.2,0,0.3,0.1,0.3,0.3l0,0v2.8c0,0.2-0.1,0.3-0.3,0.3l0,0h-2.9c-0.2,0-0.3-0.1-0.3-0.3l0,0v-2.8c0-0.2,0.1-0.3,0.3-0.3l0,0H225.8z
	 M221.3,29.5c0.2,0,0.3,0.1,0.3,0.3l0,0v2.8c0,0.2-0.1,0.3-0.3,0.3l0,0h-2.9c-0.2,0-0.3-0.1-0.3-0.3l0,0v-1c0-1.1,0.9-2.1,2.1-2.1
	l0,0C220.2,29.5,221.3,29.5,221.3,29.5z M152.1,29.5c0.2,0,0.3,0.1,0.3,0.3l0,0v2.8c0,0.2-0.1,0.3-0.3,0.3l0,0h-2.9
	c-0.2,0-0.3-0.1-0.3-0.3l0,0v-1c0-1.1,0.9-2.1,2.1-2.1l0,0C151,29.5,152.1,29.5,152.1,29.5z M156.6,29.5c0.2,0,0.3,0.1,0.3,0.3l0,0
	v2.8c0,0.2-0.1,0.3-0.3,0.3l0,0h-2.9c-0.2,0-0.3-0.1-0.3-0.3l0,0v-2.8c0-0.2,0.1-0.3,0.3-0.3l0,0H156.6z M205.7,7.5
	c0.2,0,0.3,0.1,0.3,0.3l0,0v19c0,0.2-0.1,0.3-0.3,0.3l0,0h-3.5c-0.2,0-0.3-0.1-0.3-0.3l0,0V9.5c0-1.1,0.9-2.1,2.1-2.1l0,0L205.7,7.5
	L205.7,7.5z M177.1,7.5c0.2,0,0.3,0.1,0.3,0.3l0,0v19c0,0.2-0.1,0.3-0.3,0.3l0,0h-3.5c-0.2,0-0.3-0.1-0.3-0.3l0,0V9.5
	c0-1.1,0.9-2.1,2.1-2.1l0,0L177.1,7.5L177.1,7.5z M165.1,14.5c1.6,0,2.9,0.4,3.8,1.2c0.9,0.8,1.3,2.1,1.3,3.9v2.5
	c0,0.9-0.1,1.7-0.3,2.4c-0.2,0.6-0.4,1.1-0.8,1.5c-0.4,0.4-0.8,0.6-1.3,0.8c-0.5,0.2-1.2,0.2-1.9,0.2h-7c-0.2,0-0.3-0.1-0.3-0.3
	v-1.1c0-1.1,0.9-2.1,2.1-2.1h3.2c0.5,0,0.9,0,1.1-0.1c0.3-0.1,0.5-0.2,0.6-0.3c0.1-0.2,0.2-0.4,0.3-0.6c0-0.2,0.1-0.6,0.1-0.9V20
	c0-0.7-0.2-1.3-0.6-1.6c-0.4-0.3-1.1-0.5-1.9-0.5h-3.3c-0.2,0-0.3-0.1-0.3-0.3v-2.9c0-0.2,0.1-0.3,0.3-0.3L165.1,14.5L165.1,14.5z
	 M239.2,17.9c-1,0-1.9,0.1-2.9,0.4c-0.9,0.3-1.8,0.6-2.5,0.9l0,0v3.2c0,0.4,0,0.8-0.1,1.1l0,0h5.7c0.7,0,1.3,0,1.7-0.1
	c0.5,0,0.8-0.1,1.1-0.3c0.2-0.2,0.4-0.4,0.5-0.7c0.1-0.3,0.1-0.8,0.1-1.4c0-0.5-0.1-1-0.2-1.4c-0.1-0.4-0.3-0.7-0.6-1
	s-0.7-0.5-1.1-0.6C240.6,18,240,17.9,239.2,17.9z M193.1,11.6c0.2,0,0.3,0.1,0.3,0.3l0,0v2.8c0,0.2-0.1,0.3-0.3,0.3l0,0h-2.9
	c-0.2,0-0.3-0.1-0.3-0.3l0,0v-1c0-1.1,0.9-2.1,2.1-2.1l0,0H193.1z M175.9,0c0.6,0,1.1,0.1,1.6,0.3c0.4,0.2,0.8,0.5,1,0.8
	c0.1,0.1,0,0.2,0,0.3l-0.9,0.9c-0.1,0.1-0.2,0.1-0.3,0c-0.4-0.4-0.8-0.7-1.3-0.7c-0.4,0-0.7,0.1-0.9,0.3s-0.3,0.5-0.3,0.9
	c0,0.3,0.1,0.6,0.3,0.9c0.2,0.2,0.4,0.4,0.6,0.6h2.9c0.1,0,0.2,0.1,0.2,0.2v1.3c0,0.1-0.1,0.2-0.2,0.2h-6.4c-0.1,0-0.2-0.1-0.2-0.2
	V5.6c0-0.8,0.5-1.2,1.2-1.2h0.1c-0.1-0.2-0.2-0.4-0.3-0.7c-0.1-0.2-0.1-0.5-0.1-0.8s0.1-0.7,0.2-1c0.1-0.3,0.3-0.7,0.6-0.9
	c0.2-0.3,0.6-0.5,1-0.7C174.9,0.1,175.3,0,175.9,0z"/>
</svg>
