<svg width="907" height="505" viewBox="0 0 907 505" fill="#none" xmlns="http://www.w3.org/2000/svg">
<path d="M141.484 0C143.06 2.37582 145.757 3.76539 148.448 2.48828C147.94 3.58968 147.428 4.71109 146.92 5.78125C150.627 7.94863 153.788 2.6797 156.979 2.28906C158.14 2.14125 161.178 4.0783 161.6 5.32031C162.229 7.48032 164.139 7.94925 165.959 8.96875C166.19 8.46092 166.307 7.51162 166.307 6.94141C165.268 6.85158 164.241 6.73046 163.209 6.64062C165.468 5.19949 173.491 5.03881 175.069 2.94922C175.975 1.74495 177.502 0.708074 179.248 0H186.329C186.884 2.95746 191.192 3.27438 192.87 1.26953C193.129 0.965157 193.331 0.494515 193.505 0H735.979V109.422C734.603 110.401 733.271 111.479 732.401 112C729.87 113.519 727.338 115.051 724.799 116.57C722.799 111.512 727.53 107.809 730.459 104.719C727.339 102.25 727.248 101.551 723.768 103.211C721.44 104.32 719.698 105.93 717.67 107.621C715.089 109.801 713.498 111.148 710.44 112.18C709.9 112.379 704.44 114.309 705.967 116.012C708.01 118.262 710.049 120.328 711.698 122.91C714.03 126.578 713.741 126.078 717.42 124.238C722.69 121.621 726.819 123.871 732.401 125.328C726.288 130.488 720.19 135.68 714.057 140.879C716.69 143.141 719.901 145 721.44 148.34C723.409 152.601 725.35 156.828 727.26 161.078C724.12 160.48 720.959 159.898 717.768 159.32C721.12 161.801 724.467 164.238 727.799 166.711C725.37 168.449 722.877 170.192 720.401 171.98C723.448 172.859 726.53 173.77 729.588 174.68C725.799 181.699 722.549 190.602 717.69 196.738C712.491 203.328 708.518 210.641 701.049 213.77C693.01 217.121 685.01 220.469 676.858 223.43C674.339 224.34 671.83 225.262 669.331 226.18C667.249 226.914 667.741 226.93 668.209 229.387C668.53 230.965 668.557 234.253 665.76 232.773C664.991 232.387 664.17 228.664 663.799 227.719C664.717 227.512 665.518 226.773 666.44 226.578C663.608 224.379 658.53 222.719 655.389 225.25C652.717 227.391 646.268 230.586 645.17 234.105C644.85 235.2 642.717 239.813 643.288 240.742C644.877 243.305 646.491 245.848 648.081 248.414C650.358 252.082 653.19 255.324 655.807 258.73C659.1 262.984 660.948 264.406 661.17 269.824C661.319 273.144 663.158 280.968 660.69 283.27C653.717 289.691 646.83 295.797 639.288 301.402C636.819 298.836 640.279 295.027 638.479 293.133C636.088 290.516 633.67 287.937 631.28 285.344C626.96 280.719 623.639 278.109 617.78 277.863C617.948 276.438 618.139 274.996 618.319 273.598C612.62 273.852 613.67 274.613 613.19 280.812C612.901 284.515 611.069 287.973 609.78 291.434C609.241 292.902 609.69 294.57 609.819 296.152C610.081 299.152 610.081 298.664 612.838 298.508C614.26 298.44 616.018 307.559 616.51 309.211C617.331 311.973 622.717 314.508 624.838 316.125C626.678 317.567 630.151 320.899 631.01 323.145C632.268 326.375 630.928 330.988 631.709 334.434C632.491 337.695 634.37 341.023 635.6 344.16C630.788 343.344 627.858 340.273 623.877 337.188C620.198 334.289 619.959 332.637 618.401 327.828C617.319 324.531 616.319 316.969 613.991 314.508C610.549 310.824 607.12 307.191 603.69 303.527C602.139 301.836 604.307 292.836 604.557 290.305C604.991 285.672 603.94 280.359 603.62 275.738C603.01 266.485 600.1 258.66 597.331 249.906C595.499 252.133 593.67 254.379 591.838 256.645C589.499 259.504 589.717 259.437 586.209 258.629C582.518 257.77 582.819 258.117 583.401 254.082C583.62 252.348 585.069 247.801 584.377 246.219C581.928 240.52 580.588 235.512 575.959 231.809C571.901 228.563 570.549 222.941 568.409 218.031C566.37 219.461 563.479 222.601 561.057 222.93C556.819 223.52 552.537 224.121 548.26 224.711C547.71 224.781 545.011 224.711 544.608 225.211C543.901 226.039 545.15 228.929 544.377 229.742C542.307 231.879 540.209 234.039 538.108 236.199C532.178 242.289 526.229 248.414 520.288 254.535C518.288 256.59 514.198 257.57 511.749 258.805C508.581 260.348 509.76 262.699 509.807 266.484C509.889 269.683 510.83 274.438 509.991 277.527C509.198 280.41 506.877 285.008 507.659 287.957C508.85 292.691 509.42 294.691 512.42 298.203C514.998 301.258 516.178 304.469 517.78 308.277C520.697 315.058 509.171 320.988 508.338 311.824C507.928 307.738 507.819 304.082 507.979 299.996C508.151 296.028 506.698 295.445 504.057 292.625C503.729 295.398 504.228 298.277 501.991 299.766C499.569 301.308 497.151 302.934 494.729 304.508C488.018 291.805 482.338 278.719 476.51 265.512C474.979 262.059 472.44 258.078 471.62 254.359C471.03 251.68 471.409 248.223 471.338 245.484C471.081 237.039 470.819 228.598 470.549 220.172C468.768 222.609 467.01 225.07 465.217 227.512C463.448 229.984 463.228 229.648 460.26 229.531C456.96 229.406 453.139 223.051 450.807 220.559C453.178 220.031 458.17 220.351 458.557 217.07C457.319 217.172 455.538 217.718 454.331 217.441C450.901 216.609 447.069 213.301 443.928 211.5C441.788 210.281 440.389 204.711 439.307 202.41C438.151 199.871 420.219 203.828 417.241 204.199C410.6 204.98 403.889 202.359 397.401 200.879C394.538 200.238 391.26 200.531 389.788 197.641C387.159 192.442 387.787 190.949 382.627 192.84C378.319 194.441 375.69 193.828 371.1 193.09C368.288 192.641 366.491 189.16 363.901 187.949C359.26 185.719 358.76 185.199 356.499 180.262C354.967 177 354.35 172.75 350.909 172.23C344.94 171.359 344.967 171.61 340.85 176.449C339.448 178.149 344.401 184.16 345.467 185.91C349.209 192.141 352.377 198.738 355.749 205.191C356.241 202.27 356.69 199.359 357.17 196.441C359.619 200.801 359.108 205.149 359.268 210.238C363.538 209.969 370.69 210.711 374.627 208.309C378.518 205.898 382.081 199.808 385.198 196.25C385.479 199.922 384.588 205.922 387.6 207.969C389.358 209.172 391.21 210.941 393.139 211.781C394.858 212.539 396.901 211.871 397.889 213.75C398.627 215.102 399.819 218.84 401.307 219.09C403.939 219.531 402.858 221.371 402.67 224.051C402.53 226.734 396.948 231.34 395.249 233.355C395.12 232.492 394.479 231.703 394.37 230.848C392.889 234.144 392.069 235.813 392.069 239.445C392.069 242.621 390.9 242.289 388.241 243.57C385.479 244.883 382.76 246.199 380.049 247.484C378.428 248.234 378.479 252.82 376.92 253.578C375.659 254.18 373.62 252.52 372.28 253.094C370.268 253.976 368.268 254.856 366.299 255.715C363.557 256.945 363.939 260.633 361.401 261.543C356.87 263.156 352.338 264.77 347.819 266.422C346.467 266.894 346.241 267.602 345.389 268.93C344.288 270.668 342.901 270.442 341.018 270.789C337.108 271.543 333.229 272.809 329.377 273.852C326.518 274.586 325.928 277.863 322.807 277.863C317.928 277.863 317.51 278.933 316.581 273.914C315.62 268.805 314.67 263.703 313.729 258.605C312.229 250.656 308.409 245.426 304.319 238.586C301.909 234.531 301.529 233.777 297.338 232.211C294.92 231.301 294.959 223.969 294.491 221.398C293.838 217.52 291.338 214.012 289.651 210.578C288.608 208.52 286.229 207.512 284.948 205.238C282.26 200.391 279.569 195.59 276.858 190.699C275.51 188.32 274.49 184.161 271.307 184.98C271.678 182.02 272.108 179.031 272.51 176.031C271.35 179.601 270.17 183.16 268.991 186.719C264.967 182.461 262.858 178.75 260.17 173.328C257.3 176.961 262.37 183.031 264.01 186.328C267.288 193.09 270.62 199.852 273.928 206.602C275.901 210.641 275.21 215.172 278.139 218.352C279.389 219.68 282.53 221.91 282.85 223.879C283.358 227.316 283.901 230.699 284.44 234.145C284.729 236.145 284.549 239.953 286.049 241.398C287.92 243.18 290.729 245.063 292.127 247.273C294.92 251.605 296.159 258.309 297.991 263.227C298.6 264.929 303.389 264.645 304.588 266.055C306.42 268.195 308.28 270.352 310.108 272.512C313.19 276.074 319.408 280.004 314.608 284.637C317.85 285.622 321.35 292.285 323.948 291.629C332.799 289.254 341.651 286.863 350.499 284.516C352.14 284.093 356.85 282.09 358.217 284.48C359.057 285.958 355.96 294.449 355.538 296.273C353.94 303.351 348.799 310.051 345.467 316.246C342.6 321.547 340.24 327.301 336.178 331.559C325.479 342.816 312.979 353.192 304.967 366.969C303.17 369.989 291.741 385.606 293.581 388.379C296.78 393.176 296.807 394.067 296.448 400.02C296.151 405.39 296.448 405.797 299.549 409.988C304.35 416.496 302.717 426.594 303.108 434.77C303.377 440.828 298.518 447.859 293.627 450.215C290.921 451.523 285.44 452.793 283.377 455.18C280.729 458.289 278.069 461.375 275.401 464.504C273.038 467.223 270.19 468.512 271.678 472.062C272.69 474.438 276.319 479.93 276.03 482.504C275.698 485.598 276.217 492.648 274.627 495.129C273.26 497.34 266.558 498.984 264.299 500.074C261.569 501.376 261.254 502.64 261.119 505H168.011C167.229 499.883 166.465 494.817 165.678 489.723C164.608 482.664 161.057 477.086 157.948 470.805C155.909 466.676 153.87 462.57 151.877 458.48C150.991 456.652 152.217 453.266 152.491 451.391C153.831 442.367 154.049 433.875 158.401 426.098C162.627 418.602 160.049 412.64 158.241 404.879C156.26 396.473 154.319 388.101 152.358 379.695C151.749 377.145 148.378 374.129 146.901 372.148C144.018 368.305 141.198 364.476 138.338 360.652C136.788 358.613 137.889 355.93 138.209 353.352C138.799 348.125 139.42 342.89 140.038 337.66C140.581 333.164 140.799 332.91 138.209 329.344C135.229 325.215 135.389 324.879 130.749 325.164C128.057 325.285 122.659 327.007 120.741 324.637C117.999 321.277 115.26 317.914 112.518 314.547C111.338 313.102 94.6411 315.742 92.5376 316.812C88.6003 318.812 84.639 320.828 80.686 322.848C77.5925 324.445 76.2247 323.629 72.8188 322.723C69.2682 321.789 67.0217 320.727 63.6274 321.918C59.2956 323.426 54.971 324.973 50.6509 326.5C48.5924 327.23 46.268 324.445 44.6118 323.23C40.4635 320.231 36.3031 317.23 32.1626 314.262C26.9049 310.492 24.3305 308.699 21.0649 303.051C15.7915 293.82 10.5063 284.652 5.21338 275.461C3.52983 272.512 1.84224 269.562 0.135254 266.613C-0.642057 265.227 2.16243 260.082 2.67041 258.68C3.56114 256.238 6.31475 251.766 5.729 249.078C4.75246 244.656 3.77195 240.309 2.76416 235.902C2.11572 232.953 -0.114624 227.668 0.26416 224.629C0.518203 222.789 2.76413 220.109 3.64307 218.539C8.73673 209.36 13.8033 200.148 18.9087 190.93C22.4946 184.461 26.7838 182.578 32.897 178.68C36.0646 176.66 37.4946 176.629 38.0845 172.719C38.8188 167.871 39.5689 162.988 40.2993 158.129C41.1785 152.391 52.6078 151.34 54.8384 145.738C56.4008 141.84 57.1002 136.422 61.0142 135.301C62.038 135.014 64.8741 140.308 68.0454 139.629C69.4441 139.328 72.694 137.91 74.0454 138.609C74.7804 139.02 77.6743 141.172 78.3618 140.77C81.4476 138.949 84.5104 136.699 87.7407 135.219C93.6508 132.539 100.991 129.922 107.358 129.129C109.081 128.941 111.76 128.012 113.409 128.488C114.78 128.981 116.807 130.148 118.241 130.078C119.858 130.011 121.401 128.129 122.999 127.84C124.35 127.59 126.069 128.031 127.44 128.078C131.74 128.328 134.698 129.058 138.448 126.82C141.467 124.981 144.288 127.398 147.428 128.719C145.12 133.82 144.639 134.012 147.249 138.898C148.478 141.121 143.761 144.512 142.209 146.211C144.717 148.461 147.788 152.602 150.959 153.422C156.358 154.859 161.788 156.301 167.19 157.73C171.369 158.828 170.198 163.449 174.338 165.238C177.948 166.781 181.378 166.191 184.717 168.559C189.447 171.89 191.94 172.718 194.991 166.73C195.689 165.309 193.401 163.172 194.12 161.871C194.717 160.82 195.96 157.43 197.038 157.129C202.299 155.641 204.901 154.828 210.159 156.238C211.318 156.551 210.26 158.981 211.768 159.27C214.229 159.781 216.671 160.262 219.12 160.781C221.08 161.191 221.178 162.129 222.17 164.121C222.698 165.148 224.6 162.871 225.467 163.148C229.369 164.289 233.288 165.449 237.209 166.609C241.518 167.871 242.069 167.871 246.19 165.871C250.697 163.66 251.139 162.969 255.588 165.141C260.889 167.73 269.139 166.89 271.588 160.148C273.069 155.941 280.49 142.91 277.588 138.648C275.749 135.942 279.779 130.122 278.838 129.078C277.768 127.891 276.217 129.781 275.358 130.5C274.28 131.422 272.788 129.102 271.651 129.352C270.139 129.629 268.901 132.789 267.479 133.469C266.151 134.101 263.518 133.649 262.049 133.73C258.659 133.859 257.197 130.211 254.108 129.66C252.049 129.289 250.331 128.071 249.53 130.371C248.628 133.101 248.639 132.961 245.967 133.449C243.389 133.93 239.12 130.371 237.03 129.129C233.159 126.91 226.479 115.691 230.651 111.02C229.28 111.199 227.869 111.34 226.491 111.512C225.889 106.899 231.877 105.641 234.389 105.559C239.197 105.41 241.659 105.351 245.909 102.969C244.6 102.301 243.268 101.648 241.948 100.949C242.768 98.6918 247.588 99.6719 249.768 99.9688C253.799 100.551 254.018 99.4217 257.229 97.2812C259.268 95.9492 262.229 93.8086 264.709 93.9883C267.979 94.25 270.967 94.789 274.088 93.6992C273.339 95.0195 274.651 96.1914 276.057 96.8789C278.279 97.9877 277.448 95.0197 279.698 98.1797C280.519 99.3202 286.639 100.25 288.6 101.07C291.908 102.39 293.999 100.41 297.338 100.828C301.1 101.269 303.76 99.8593 306.967 97.8086C309.67 96.1209 308.159 91.4219 306.479 89.5195C304.088 86.8399 301.151 86.3279 298.581 83.8906C295.858 81.3009 293.608 77.9885 289.948 77.5391C289.569 77.4805 286.73 75.6413 286.229 75.3086C284.741 74.3087 283.358 73.1288 281.92 72.0586C282.081 71.7621 283.1 70.4005 283.108 70.3789C284.491 70.6601 285.839 70.9414 287.209 71.1992C285.959 66.8086 288.768 65.4609 291.991 65.5312C290.46 64.2696 288.389 63.1092 287.557 61.3008C288.928 61.2695 290.319 61.2187 291.69 61.1797C290.698 58.0392 294.78 60.3395 295.377 58.4219C296.088 56.1414 292.769 57.1599 291.831 57.3203C288.44 57.8789 284.741 57.9691 282.338 61.1406V60C278.549 60.9218 277.069 61.5511 274.139 64.3203C274.358 63.8283 274.581 63.3397 274.819 62.8711C270.94 62.3711 272.709 67.25 274.28 69.1094C276.249 71.4801 279.338 70.2695 282.538 70.2695C280.28 74.3589 277.659 71.3287 275.178 72.6602C272.549 74.0586 267.479 78.64 264.62 76.3516C266.338 71.5513 264.119 72.1482 260.139 70.25C262.101 69.2186 269.677 66.4608 264.53 64.7109C262.94 64.1602 261.057 64.5898 259.401 64.6484C258.21 64.7187 256.557 62.8791 255.538 62.1602C257.639 62.3009 260.299 63.4293 261.409 61.0586C259.12 62.199 253.339 59.571 251.991 61.1094C250.467 62.8086 246.1 66.1797 245.741 68.5195C245.518 69.9218 245.588 72.9412 244.87 74.0781C244.127 75.1287 241.171 75.012 240.901 76.3516C240.038 80.488 240.248 83.5391 236.889 85.7383C233.588 87.8906 234.37 91.7383 235.94 94.7891C236.94 96.7615 242.24 99.2108 241.948 100.129C241.08 102.789 236.241 99.3992 234.499 101.07C231.889 103.48 229.307 105.899 226.709 108.32C226.428 105.488 228.038 104.949 229.959 103.781C228.467 103.141 226.709 103.129 224.979 102.441C222.26 101.41 220.709 102.07 218.288 101.41C217.081 101.09 215.549 102.09 214.42 102.531C213.339 102.93 214.83 104.929 214.241 105.391C212.108 107.16 210.608 105.559 208.768 104.27C206.78 106.5 208.991 108.602 210.139 110.648C211.908 113.808 211.998 113.461 209.499 116.031C212.76 118.32 216.369 119.121 215.651 123.871C213.69 122.359 212.33 120.52 210.28 123.078C212.83 123.57 213.049 125.172 211.241 126.609C209.288 128.102 210.28 128.981 211.049 131.352C208.858 130.93 207.19 131.301 206.241 129.059C205.358 127.16 204.42 127.711 202.799 129.051C201.088 123.281 199.909 122.75 204.37 119.141C200.229 119.121 200.229 118.621 197.729 114.871C196.319 112.762 195.299 109.18 193.44 107.672C190.17 104.969 191.358 102.93 191.78 98.4883C192.139 94.391 190.787 94.3903 187.698 91.9297C183.639 88.6993 178.94 84.2112 173.92 83.5391C172.627 83.3399 169.69 79.4689 169.241 78.0781C168.049 74.0783 167.709 73.0311 164.62 70.6211C163.241 74.8395 161.569 72.7186 161.01 69.7109C160.467 66.7385 161.057 67.4805 157.831 68.3398C154.588 69.25 152.729 69.5391 154.741 73.1914C155.428 74.4611 152.94 77.4689 155.198 79.2109C157.069 80.6093 160.159 82.0587 161.569 83.9805C162.998 86 162.78 89.1602 164.651 90.8203C166.928 92.7889 168.089 94.3906 170.959 94.5312C172.819 94.6289 176.087 94.5318 173.178 96.8789C175.82 99.0509 189.158 104.602 185.768 109.129C184.421 108.43 180.569 103.142 178.999 104.641C177.401 106.14 177.19 106.512 176.659 108.75C176.241 110.672 177.46 110.531 178.831 111.59C182.697 114.609 176.178 115.449 176.42 117.27C176.76 119.871 171.538 124.441 171.659 120.211C169.038 121.711 168.53 124.98 169.807 127.52C171.119 130.121 165.819 130.98 165.209 128.891C164.069 125.078 151.339 125.539 156.331 120.012C157.031 120.828 163.92 121.449 165.518 121.078C167.35 120.66 170.53 120.621 172.12 119.551C173.76 118.449 172.3 117.289 174.081 116.34C175.306 115.729 172.308 107.811 171.44 107.691C170.401 107.57 167.839 107.5 168.108 105.859C168.428 103.789 166.44 103.02 164.959 103.809C165.26 102.07 161.468 99.2312 159.948 99.4219C157.217 99.8085 155.67 97.0898 153.717 95.1406C150.21 91.7383 145.46 90.0116 144.37 85.3086C143.338 80.9103 143.338 80.6209 139.62 78.6914C137.69 77.6602 135.307 76.8989 133.909 78.6406C132.908 79.8713 122.86 87.2599 121.581 86.8398C118.268 85.7696 114.959 84.6406 111.627 83.5586C109.921 83.0313 107.28 86.6286 106.01 87.8008C105.339 88.3988 107.33 93.4881 106.069 95.2812C104.807 96.9998 100.307 98.211 98.479 99.1406C93.0807 101.969 91.4203 106.301 88.1704 111.891C87.1981 113.519 91.4002 115.051 89.3774 117.73C88.1586 119.43 84.8697 122.121 85.8579 124.148C84.6783 124.449 81.9129 124.559 81.2446 125.66C80.6236 126.629 79.346 129.71 78.2642 129.82C74.7643 130.148 71.4124 129.961 67.9282 129.82C64.8581 129.68 63.0569 133.449 60.6353 134.219C58.44 134.941 54.5378 130.078 57.229 128.148C54.5651 129.422 53.2951 124.899 49.9204 126.84C47.2292 128.379 45.2522 126.071 42.8306 127.891C43.2016 125.91 43.7719 123.98 43.5962 121.922C43.4985 120.82 43.4204 119.691 43.3267 118.57C43.2172 117.36 42.0846 118.851 41.6392 118.172C39.5845 115.051 41.1001 114.308 41.9243 110.801C42.7525 107.41 45.2327 102.129 43.854 98.8594C42.5454 95.8087 43.1821 92.3515 43.772 89.2188C41.8932 90.7185 40.6549 87.8515 41.4126 86.0508C42.1121 84.3988 45.6353 84.3789 46.8579 84.1914C46.69 83.8087 46.4985 83.4218 46.2681 83.0781C49.5178 80.149 51.0494 84.1405 53.8813 83.4219C57.9122 82.422 59.362 82.1915 63.2798 83.4492C66.3343 84.4294 68.8854 82.8711 71.6548 83.8906C73.5807 84.5898 77.233 85.121 79.2017 84.6992C84.5878 83.5581 83.8892 73.0586 83.8579 68.7617C83.8072 64.6917 84.5292 63.3906 80.7056 62.1992C78.4869 61.5118 78.1861 57.5315 78.6626 56.3203C76.6083 56.8085 77.408 55.551 76.561 55.1797C75.6238 54.7189 73.2808 54.6209 72.8931 54.3281C71.2448 53.0392 70.6349 52.2189 68.6118 52.3203C67.151 52.4492 66.1938 52.2615 65.2681 50.6914C65.8421 50.6287 66.405 50.2187 66.9751 50.1602C65.6392 49.5196 64.7135 48.5116 64.7446 46.9102C67.0687 46.7501 69.526 47.1209 71.5142 45.7109C75.623 42.8288 73.28 48.0194 75.9399 47.3398C76.8943 47.1404 81.9863 46.2887 81.7681 44.8711C81.3853 42.4689 80.6743 40.7303 79.6821 38.5195C80.7682 38.6209 82.7681 38.2385 83.1704 39.4609C83.7094 41.1209 83.5103 41.2305 85.0298 41.4219C88.1075 41.8085 89.3308 41.6288 92.229 40.4414C91.5299 40.4102 90.8695 39.8908 90.1899 39.8008C91.69 37.6722 94.5377 36.9491 96.7485 35.8984C99.9079 34.3594 96.6004 32.2889 98.1392 29.7812C98.8313 28.672 103.71 27.5507 105.12 26.8789C107.619 25.6995 109.081 25.8516 111.799 26.0508C110.858 25.75 108.249 25.4295 108.19 24.3086C108.171 24.0704 110.639 23.8281 110.858 23.5898C111.287 23.1092 110.878 21.9413 111.37 21.3203C113.037 19.1409 113.389 17.7888 114.03 14.9688C114.319 13.6292 116.549 13.91 117.409 12.9102C120.248 9.50047 123.057 11.4687 126.389 10.4102C126.877 10.2374 126.401 8.64843 127.229 8.48828C128.159 8.37891 129.081 8.21872 130.01 8.07812C131.37 7.85958 132.999 8.37893 134.37 8.55859C133.87 5.89852 136.1 6.58983 137.967 6.35938C136.959 5.98048 134.151 3.60941 135.53 2.51953C137.183 1.23309 136.601 0.942662 135.867 0H141.484ZM345.338 425.363C345.62 418.836 349.999 425.625 351.358 427.52L351.53 427.785C352.741 433.859 354.69 438.543 352.338 444.211C351.448 443.328 350.53 442.422 349.651 441.527C350.241 449.035 349.76 452.285 347.627 459.375C344.491 469.816 341.37 480.297 338.249 490.77C337.389 493.629 336.51 496.516 335.67 499.387C335.555 499.758 328.821 501.765 327.909 502.219C326.58 502.832 320.21 500.461 319.967 499.039C319.409 495.254 318.92 491.48 317.877 487.793C316.78 483.863 315.858 480.855 317.217 476.73C318.331 473.324 322.33 469.816 322.709 466.273C323.088 462.992 320.831 457.738 320.1 454.535C319.678 452.707 321.338 445.844 322.85 445.598C326.85 444.859 329.651 443.633 333.35 441.738C336.717 440.035 337.901 437.207 340.479 434.246C343.697 430.59 345.127 430.554 345.338 425.363ZM775.307 359.336C777.92 354.278 782.807 353.27 787.538 354.367C790.627 355.129 791.53 354.473 791.979 357.895C792.377 361.16 793.1 363.406 794.26 366.43C795.288 369.164 796.557 369.289 799.1 370.516C799.968 370.901 803.139 365.692 803.838 364.758C805.799 362.141 810.51 359.949 813.409 361.031C819.42 363.32 825.409 365.637 831.42 367.902C835.127 369.32 839.768 370.27 843.209 372.426C845.491 373.867 847.838 375.344 850.151 376.816C852.518 378.293 851.42 381.223 853.127 383.078C855.71 385.871 864.448 383.75 863.831 390.434C862.268 390.629 860.69 390.785 859.127 390.98C859.549 392.141 859.96 394.648 860.948 395.316C861.967 396.004 864.12 396.84 864.678 398C866.979 402.664 866.741 403.895 871.588 404.074C870.217 407.16 873.1 406.828 875.108 407.305C873.038 409.039 877.319 411.949 878.639 413.391C876.87 414.004 873.428 411.356 871.229 410.984C868.049 410.422 864.959 410.691 862.608 408.23C859.628 405.094 856.659 401.98 853.717 398.855C852.21 397.258 845.929 397.598 843.807 397.312C842.089 397.035 841.248 402.968 839.338 404.176C835.948 406.371 832.35 405.336 828.44 405.141C826.108 405.023 824.69 399.232 822.76 399.418C819.049 399.824 815.358 400.195 811.627 400.547C812.299 395.086 812.76 395.613 817.62 394.227C816.229 390.914 814.858 387.59 813.44 384.258C812.628 382.324 808.319 381.504 806.62 380.781C802.467 379.047 798.369 377.273 794.217 375.516C790.698 374.023 790.76 374.183 790.018 369.969C788.538 371.777 787.088 373.52 785.659 375.309C783.999 372.5 782.358 369.711 780.717 366.883C784.67 365.953 786.901 365.195 790.698 366.492C790.928 365.879 791.038 364.652 790.94 364.02C787.807 364.176 784.241 365.129 781.401 363.566C780.288 362.973 781.197 360.251 780.319 360.086C778.651 359.844 776.979 359.633 775.307 359.336ZM755.959 399.91C755.018 403.246 748.44 404.93 745.807 406.16C744.108 406.973 743.518 408.043 742.307 409.703C740.991 411.527 738.467 411.274 736.479 411.688C738.928 409.492 735.831 408.504 737.768 406.703C739.569 405.074 741.878 404.371 743.999 403.352C744.678 403.035 744.678 401.758 745.288 401.461C746.229 401 747.628 400.988 748.651 400.754C751.069 400.262 753.467 400.121 755.959 399.91ZM712.928 407.656C712.69 403.582 720.569 406.477 721.549 408.773C723.787 414.003 715.55 408.704 712.928 407.656ZM706.428 398.809C709.628 397.598 717.818 401.809 710.19 403.09C704.967 403.965 701.537 404.371 696.37 402.688C697.428 400.262 697.26 399.117 699.76 399.176C700.858 399.207 703.85 400.164 704.62 401.281C706.26 401.242 707.268 400.547 706.428 398.809ZM735.377 399.207C739.248 399.492 741.549 398.195 745.377 399.637C742.71 402.086 737.1 400.512 733.92 400.578C732.448 400.617 731.35 402.918 728.991 402.496C727.948 402.32 727.67 403.457 726.749 403.562C725.538 403.723 725.19 402.106 723.331 403.723C722.229 402.48 715.018 403.281 717.741 400.262C720.108 397.598 725.159 401.949 727.557 400.527C728.717 399.86 729.999 401.793 731.018 400.895C732.869 399.266 733.057 399.051 735.377 399.207ZM690.569 398.695C692.467 397.934 696.966 398.551 694.819 401.367C692.659 404.191 690.569 401.695 690.569 398.695ZM650.229 385.785C651.359 386.539 656.71 387.746 657.03 388.336C659.209 392.031 661.999 391.211 665.94 391.613C666.94 391.715 668.358 392.421 668.717 391.223C669.338 389.172 670.17 388.188 671.678 390.07C672.909 391.644 677.62 392.098 679.44 391.242C678.71 394.75 682.319 396.719 684.877 396.121C690.537 394.856 687.401 399.457 689.838 402.578C687.807 401.664 685.76 400.754 683.717 399.879C680.307 400.527 678.99 399.418 675.67 399.117C675.12 399.086 674.85 400.089 674.139 400C673.018 399.879 671.909 399.699 670.76 399.578C669.37 399.406 667.959 398.684 666.6 398.176C665.1 397.648 663.268 396.582 661.717 396.402C660.089 396.258 658.229 397.453 656.627 397.141C653.581 396.543 650.537 394.649 647.249 394.016C647.35 393.52 647.479 392.98 647.569 392.453C644.831 391.82 640.491 391.508 643.749 387.715C644.869 386.395 644.948 385.766 646.491 386.117C648.018 386.504 649.6 387.648 650.229 385.785ZM899.53 382.363C901.729 383.043 901.46 385.242 902.909 385.977C904.018 386.52 905.299 387.77 906.049 388.945C907.588 392.468 902.831 391.07 901.651 389.66C901.1 389.027 901.51 387.543 900.67 386.539C899.627 385.297 899.409 384.156 899.53 382.363ZM883.35 380.168C883.307 378.765 882.671 373.531 885.518 375.391C887.67 376.836 889.459 379.941 885.569 380.801C888.427 383.73 883.832 383.395 883.448 384.188C882.401 386.539 879.44 387.59 877.108 388.137C874.038 388.871 867.589 387.156 866.229 383.855C868.26 383.121 870.378 383.73 872.479 383.66C874.42 383.57 875.71 380.555 876.057 381.328C873.741 386.925 883.038 380.113 883.35 380.168ZM588.749 319.727C589.449 318.724 596.307 321.34 597.729 321.5C602.299 322.024 601.581 323.774 604.018 327.254C605.858 329.746 609.44 332.078 611.608 334.172C614.26 336.695 617.518 337.66 619.67 340.629C620.831 342.222 622.12 342.047 623.991 342.363C627.037 342.941 624.967 343.383 626.729 344.75C628.51 346.121 629.53 344.871 629.53 347.605C629.53 349.074 632.709 348.824 633.178 351.215C633.51 352.844 631.581 353.492 631.928 355.645C632.12 357.019 634.94 357.473 636.038 357.93C636.979 358.341 637.139 362.035 637.35 363.113C637.716 365.028 639.803 365.059 638.066 367.066C641.225 364.06 646.231 367.471 644.717 371.852C643.37 375.742 644.28 381.453 643.428 385.785C641.549 381.981 640.12 386.222 637.78 383.328C637.788 384.289 637.377 385.328 637.428 386.309C632.409 381.676 627.959 376.922 623.538 372.062C621.358 369.652 618.991 367.566 617.62 364.543C616.088 361.215 614.588 355.07 612.12 352.492C611.108 351.422 609.538 352 609.1 350.367C608.479 347.981 607.819 345.605 607.198 343.258C606.139 339.254 601.057 340.113 600.877 335.73C600.741 331.793 596.171 330.926 594.049 329.043C593.1 328.219 587.628 321.36 588.749 319.727ZM732.909 379.941C732.628 377.363 734.639 376.289 735.479 379.133C734.319 378.852 733.26 379.816 734.19 381.117C735.49 382.906 734.217 383.5 733.03 385.297C732.018 384.348 730.998 383.418 729.999 382.5C730.268 381.136 731.659 376.227 732.909 379.941ZM745.459 341.438C743.659 346.555 740.35 353.07 734.491 349.633C732.089 348.281 728.651 349.398 726.03 349.598C723.729 349.809 721.557 347.434 719.87 349.488C716.35 353.773 721.151 362.55 725.717 357.559C727.529 355.528 726.589 357.754 728.44 357.262C729.979 356.84 730.057 355.965 732.069 355.949C733.6 355.898 737.248 353.364 736.1 357.559C731.87 354.828 730.127 364.406 725.37 362.625C726.748 364.133 727.819 364.004 728.889 366.023C729.538 367.273 730.21 368.488 730.838 369.727C731.287 370.547 729.479 371.852 729.76 372.516C730.838 375.129 734.447 373.36 732.909 376.883C733.529 375.47 728.28 379.832 729.229 379.59C727.249 380.062 725.46 379.504 726.19 376.883C726.901 374.305 723.96 374.746 723.151 372.234C722.85 371.203 724.677 366.778 722.338 367.039C718.069 367.566 721.057 369.012 720.807 371.254C720.538 373.469 720.998 376.008 720.76 377.953C720.67 378.918 719.659 379.817 719.627 380.781C719.6 381.59 720.76 383.629 720.401 384.258C719.659 385.656 715.468 385.047 714.78 383.891C714.038 382.699 715.83 376.575 716.049 374.992C716.619 371.149 713.831 373.32 712.698 371.711C710.717 368.777 711.588 368.441 713.12 365.16C714.217 362.762 713.69 361.297 714.409 359.105C715.338 356.328 718.619 354.91 716.448 351.719C718.178 348.246 718.889 346.512 721.967 344.508C724.331 342.977 728.717 345.574 731.127 346.398C733.029 347.05 732.749 345.891 734.35 345.996C735.651 346.067 737.71 347.472 738.901 346.715C741.037 345.297 743.01 341.469 745.459 341.438ZM879.42 366.379C882.08 368.137 885.21 369.672 887.698 371.738C888.229 372.16 888.659 373.238 889.018 373.836C889.467 374.492 890.44 373.793 890.698 374.184C892.26 376.765 891.807 376.883 890.588 379.715C890.19 378.918 889.6 378.094 889.338 377.219C890.658 371.235 878.421 369.637 879.42 366.379ZM701.717 311.422C703.198 311.227 707.171 315.059 708.229 316.438C708.991 317.422 709.948 319.426 711.159 319.707C712.697 320.09 713.659 319.875 714.28 321.547C712.448 322.023 710.619 322.586 708.76 323.098C709.518 324.125 710.268 325.164 711.018 326.184C709.6 326.461 704.839 326.426 704.768 328.773C704.651 333.621 706.139 333.324 707.6 337.469C707.858 338.223 706.799 339.645 707.108 340.305C707.659 341.422 709.569 342.539 710.409 343.344C713.9 346.543 712.178 347.121 708.377 346.293C706.491 345.891 705.03 349.609 705.159 351.688C705.479 356.281 705.51 356.246 702.26 359.105C699.87 361.215 699.018 361.297 698.967 364.531C698.909 368 698.85 371.43 698.768 374.922C697.069 375.129 697.018 373.691 697.51 372.078C695.081 373.258 692.639 374.492 690.217 375.695C689.901 374.492 689.76 371.938 688.627 371.465C687.53 371.063 685.901 371.777 685.19 371.355C680.71 368.527 680.229 369.586 675.62 372.184C675.377 370.813 675.151 369.41 674.928 368.039C673.448 368.746 667.51 371.203 667.19 368.137C666.831 364.652 667.307 359.547 664.581 357.156C664.089 358.734 664.338 358.032 662.717 358.809C663.159 356.524 662.401 357.754 661.999 356.371C661.717 355.371 661.389 354.418 661.088 353.457C660.838 352.559 662.08 352.242 661.92 351.562C661.651 350.402 660.108 349.379 660.26 348.125C660.518 346.035 660.807 343.941 661.03 341.875C662.19 341.184 663.319 340.465 664.448 339.801C665.069 343.554 670.46 343.383 673.17 344.086C670.28 341.223 671.049 341.308 673.127 337.766C674.76 334.961 677.319 334.922 680.198 333.988C682.83 333.129 683.788 330.535 685.358 328.129C687.608 324.723 688.21 324.723 691.999 323.742C695.029 322.949 693.198 321.105 695.299 318.688C696.479 317.386 700.081 311.645 701.717 311.422ZM766.819 367.41C770.151 368.293 776.197 368.821 774.991 374.359C772.241 372.465 771.307 371.223 768.159 372.062C767.057 372.359 765.639 371.43 764.588 371.062C763.651 370.691 764.056 372.886 763.069 373.012C761.717 373.203 756.878 373.203 759.35 369.988C761.178 367.641 764.057 367.902 766.819 367.41ZM749.331 370.449C750.421 367.321 756.58 369.848 756.389 372.676C755.401 373.078 747.69 375.129 749.331 370.449ZM653.459 370.652C653.26 369.726 652.19 363.984 655.01 366.195C657.338 368.039 657.158 371.867 653.459 370.652ZM643.401 360.473C647.01 360.145 644.741 366.809 649.209 366.648C648.018 367.621 647.838 368.621 648.717 369.652C647.569 369.672 646.678 369.144 645.709 368.34C644.717 367.512 645.17 366.898 644.401 366.059C643.831 365.426 643.447 363.954 642.838 364.004C641.788 364.109 641.229 364.144 640.35 363.406C641.459 361.969 642.108 359.617 643.639 361.969C643.549 361.477 643.459 361.004 643.401 360.473ZM763.139 336.312C763.299 337.41 763.659 338.57 763.698 339.68C763.12 340.293 762.709 341.309 762.229 342.047C765.068 342.766 764.728 345.824 762.241 346.453C760.049 347.031 764.428 349.961 765.081 350.512C760.717 348.738 761.768 354.406 762.151 356.984C761.26 356.172 758.089 354.383 758.26 353.102C758.538 350.93 758.28 348.633 757.948 346.82C757.499 344.52 756.401 343.996 758.057 341.184C759.159 339.363 761.62 337.695 763.139 336.312ZM746.6 294.977C748.139 295.238 749.17 296.574 749.698 298.203C751.119 297.591 751.53 299.469 751.307 300.855C750.94 301.242 750.557 301.629 750.198 302.035C750.608 302.078 750.909 302.523 751.608 302.523C751.69 303.07 751.709 303.91 751.53 304.457C753.9 304.598 751.878 310.683 751.499 312.32C751.19 312.129 750.909 311.973 750.608 311.773C750.557 312.984 750.491 314.195 750.42 315.406C749.139 313.352 750.049 311.262 748.569 309.246C745.589 311.422 747.19 313.125 747.729 315.684C748.44 319.113 744.44 320.652 745.67 316.684L745.19 316.652C744.358 319.601 739.76 316.195 739.057 314.355C737.96 311.488 741.748 306.071 736.018 306.84C736.229 307.578 735.928 308.508 736.178 309.246C734.928 308.422 734.928 308.926 734.78 307.262C734.03 308.105 733.819 307.75 733.331 309.066C732.389 303.528 730.128 311.139 728.959 312.105C726.401 308.488 730.838 305.609 733.307 304.871C734.65 304.468 733.741 301.031 736.288 301.191C738.529 301.328 738.729 303.91 737.467 305.449C739.619 304.597 740.69 300.664 743.03 302.402C742.799 300.348 743.377 299.07 745.088 300.152C745.908 298.973 745.557 299.223 747.319 299.523C747.088 298 746.831 296.508 746.6 294.977ZM714.78 284.973C715.288 285.426 715.967 285.848 716.35 286.434C716.018 287.535 717.017 290.97 716.729 291.184C715.651 292.008 712.448 293.59 712.249 294.977C711.377 300.14 707.467 301.012 703.389 303.527C705.51 299.645 707.19 297.473 710.331 294.52C713.42 291.606 713.85 289.293 714.78 284.973ZM727.889 283.43C728.717 283.355 729.839 283.02 730.639 283.219C734.029 284.535 734.999 284.883 736.94 288.16C737.74 289.586 735.139 293.672 735.159 295.785C735.19 297.242 735.888 299.523 734.389 299.766C732.8 300.051 733.26 298.242 731.959 297.645C728.608 296.113 732.159 292.66 733.729 290.602C727.608 293.531 728.377 289.32 727.889 283.43ZM739.819 286.008C739.428 287.519 740.018 290.566 739.03 291.5C737.338 293.062 736.057 294.781 735.67 297.273C735.139 293.785 737.928 289.726 738.979 286.449C739.268 286.305 739.538 286.148 739.819 286.008ZM740.268 292.836C743.408 293.168 741.799 296.925 739.377 296.43C736.401 295.82 739.358 293.66 740.268 292.836ZM740.69 284.762C741.69 285.922 742.979 286.406 744.288 285.672C744.1 288.465 746.689 291.414 745.331 293.449C745.03 292.66 744.639 291.941 744.288 291.215C744.467 292.027 744.331 292.942 744.459 293.785C742.229 292.52 743.787 286.853 741.581 288.781C740.69 287.676 740.831 286.305 740.69 284.762ZM740.459 278.973C742.979 278.844 746.069 277.778 746.967 281.195C747.518 284.133 747.928 290.433 744.389 285.73C743.389 284.406 745.107 284.254 743.538 282.883C742.12 281.691 740.518 281.023 740.459 278.973ZM735.03 278.551C737.877 278.352 737.389 280.863 739.51 280.707C739.6 281.551 739.588 283.109 739.358 283.938C738.198 283.254 737.151 282.195 736.53 280.887C735.947 281.353 735.204 281.823 734.654 282.374C735.554 281.276 735.733 279.884 735.03 278.551ZM734.654 282.374C734.56 282.489 734.46 282.603 734.35 282.711C734.441 282.595 734.545 282.483 734.654 282.374ZM723.581 273.496C727.068 275.863 727.51 277.743 724.467 281.359C722.979 278.762 721.479 276.18 719.967 273.598C721.178 273.563 722.389 273.527 723.581 273.496ZM720.807 244.688C720.999 243.465 723.26 242.66 724.389 242.883C727.818 243.586 726.1 245.621 730.03 243.676C731.268 246.347 728.991 247.274 729.409 249.203C730.17 252.867 731.639 251.079 730.35 255.258C730.108 256.207 729.92 257.73 729.409 258.539C728.948 259.277 726.967 257.856 727.038 259.227C727.209 262.754 724.678 261.438 726.639 265.332C727.627 267.297 726.588 269.961 729.319 270.09C730.268 270.14 730.51 268 731.85 268.301C733.057 268.594 733.799 268.785 734.858 269.426C735.807 270.012 736.991 271.035 738.038 271.355C738.92 271.593 739.018 269.246 740.049 270.336C742.229 272.617 740.459 273.984 737.959 272.715C737.788 276.007 741.498 274.997 739.819 278.652C738.807 277.988 735.589 276.566 735.581 275.336C735.491 271.965 734.998 272.336 732.127 271.266C731.909 272.652 731.67 274.039 731.428 275.441C730.831 274.477 729.94 273.106 728.948 272.566C725.967 270.879 726.85 272.808 724.467 272.523C721.85 272.191 719.518 269.016 722.877 267.277C721.288 266.66 718.628 266.453 718.307 264.488C717.85 261.996 716.46 258.559 717.67 256.309C718.518 257.062 719.331 257.781 720.159 258.539C720.709 256.59 718.928 256.062 719.217 254.309C719.741 251.117 720.28 247.89 720.807 244.688ZM669.331 233.953C670.979 234.235 671.518 235.617 671.139 237.41C669.26 237.27 668.85 239.867 668.557 241.641C668.287 243.586 665.85 243.641 664.581 244.219C663.698 244.586 665.056 245.636 663.608 245.516C662.299 245.41 661.807 245.344 660.709 244.656C658.018 243.113 658.581 242.426 658.608 239.055C661.94 236.922 664.28 232.516 669.057 235.199C669.139 234.797 669.241 234.355 669.331 233.953ZM724.94 203.801C730.4 201.219 727.51 208.75 726.877 211.66C725.909 216.031 724.549 218.949 722.549 222.871C720.51 219.82 717.749 217.101 718.557 212.961C719.299 209.219 721.878 205.238 724.94 203.801ZM270.94 136.59C269.389 138 266.889 139.102 268.288 141.648C267.229 141.969 256.268 145.019 258.959 139.699C259.768 138.102 263.819 138.969 264.889 139.07C266.698 139.23 269.249 137.352 270.94 136.59ZM214.338 136.398C217.51 138.281 218.46 138.949 221.999 138.441C223.741 138.192 227.651 138.899 227.538 140.879C222.108 141 218.307 140.738 213.108 139.102C213.229 138.41 213.901 136.93 214.338 136.398ZM358.19 58.1484C356.6 57.5118 353.87 60.1792 352.217 60.4805C348.01 61.2304 348.28 59.0003 347.057 64.2695C346.69 65.738 341.929 66.8281 340.69 67.3906C337.741 68.621 337.959 68.762 337.26 72.2188C336.948 73.8006 334.479 75.5196 333.42 76.6602C336.037 76.8205 338.979 78.8909 338.909 81.9883C338.819 86.578 339.459 88.3516 341.288 92.4805C342.44 95.0194 345.307 95.8399 346.659 98.2109C348.92 102.09 349.639 103.34 353.389 105.16C350.288 106.109 349.67 105.762 348.838 109.18C348.331 111.34 347.491 113.309 346.69 115.34C345.717 117.851 346.049 119.43 346.28 122.148C346.549 125.121 347.338 124.559 350.03 125.211C352.357 125.77 352.467 127.52 354.331 128.078C356.608 128.82 358.921 129.539 361.17 130.219C364.1 131.14 369.151 129.27 372.217 128.891C371.819 125.172 371.03 121.621 371.749 117.988C372.838 112.411 370.319 114.968 368.108 110.988C368.76 111.199 369.538 111.02 370.209 111.148C369.96 110.25 369.729 108.379 369.151 107.762C368.569 107.141 366.651 107.921 366.088 107.25C364.588 105.371 365.53 103.531 366.358 101.762C366.201 102.11 374.85 103.058 376.44 102.32C377.01 99.8597 374.83 98.9217 373.299 97.4883C372.35 96.629 372.377 93.9887 371.389 93.3711C367.069 90.7188 366.389 97.4881 366.338 99.9688C363.87 95.7696 363.35 94.0194 365.401 89.4883C363.608 88.6602 359.62 87.8397 358.331 86.2617C357.331 84.9805 357.37 80.4298 357.088 78.75C357.084 78.608 351.07 76.2615 353.729 75.6211C356.307 74.9888 356.999 78.1013 359.639 76.1484C357.889 74.5 356.178 74.1913 357.639 72.0117C358.44 70.8518 360.51 70.1016 361.807 70.3086C364.858 70.8085 369.62 70.6602 372.217 71.8711C370.21 72.6797 368.378 75.0782 368.569 77.4297C370.467 74.7307 371.198 73.0508 374.459 72.6406C372.838 67.5197 371.69 70.8902 367.389 69.5391C368.057 67.3009 369.537 64.7616 368.401 62.6484C367.92 61.7383 366.01 57.2313 364.459 59.0508C362.807 61.0583 360.338 58.9884 358.19 58.1484ZM134.108 102C135.589 101.019 141.799 97.7195 141.139 103.199C140.819 105.879 140.467 108.57 140.151 111.219C139.83 113.808 137.69 112.461 137.588 113.898C137.377 116.39 135.768 116.191 134.19 114.73C132.19 112.809 134.26 112.609 134.639 110.16C134.697 109.738 133.319 109.019 133.389 108.602C133.569 107.781 134.979 106.27 134.831 105.488C134.401 103.481 131.518 104.34 132.51 101.41C133.049 101.621 133.569 101.789 134.108 102ZM102.538 110.16C105.369 108.531 106.6 106.738 108.538 110.359C107.62 111.148 106.659 111.899 105.717 112.691C104.651 111.871 103.588 110.988 102.538 110.16ZM139.03 87.0312C139.51 91.4216 139.159 93.3518 137.819 97.5117C136.12 97.6015 132.651 94.2305 134.557 92.6094C135.588 91.7501 137.159 90.8787 137.967 89.75C138.838 88.59 137.518 87.3515 139.03 87.0312ZM83.9604 0C86.1207 2.67041 89.3247 4.07964 90.1001 8.80078C89.2486 7.42202 87.8499 7.00029 86.4009 7.62891C88.7877 7.62945 93.5171 11.6798 90.3696 13.9492C91.16 14.8389 99.3303 11.5594 98.7798 16.4102C98.2485 21.1012 95.8772 22.4104 92.4087 25.0195C93.7887 25.1995 100.829 26.6605 96.2485 28.5508C92.6589 30.0311 90.3498 29.9103 86.9595 30.7695C84.9675 31.2382 84.5567 29.3089 82.7876 29.1992C81.4479 29.1406 78.901 31.1208 77.6743 31.7617C73.5377 33.7811 72.6586 29.1216 70.3657 34.8398C66.3229 31.8712 63.182 37.8196 60.3032 35.8086C61.8619 33.9689 65.5726 32.1599 66.1313 29.9102C67.2252 25.6722 70.6666 27.1289 73.9321 27.5703C74.19 25.9416 75.272 25.0311 76.3032 23.7812C74.5847 24.3788 72.8655 24.961 71.1431 25.5586C70.7796 25.6912 68.3269 24.2114 67.3735 24.2109C67.6585 24.0001 67.9635 23.7694 68.2485 23.5312C65.9353 22.2249 63.9088 25.6969 62.3569 23.0762C62.3787 22.9925 62.287 22.2124 62.104 21.7188C63.4402 21.1485 66.975 20.4881 67.8306 19.3086C69.4434 17.0511 68.0572 16.4411 68.4087 14.0586C67.2253 14.2617 66.0335 14.5 64.8423 14.7383C66.6701 13.4806 67.6699 11.9099 65.6392 10.25C66.9749 9.78153 68.0845 10.2502 68.5181 11.5781C70.0804 10.309 71.6237 11.0508 73.4087 11.3789C73.2993 10.9493 73.2016 10.539 73.0884 10.1094C74.0137 10.6285 73.7565 9.92203 74.5532 11.0703L75.1274 10.8789C73.4908 9.76956 73.3424 5.85943 74.6821 3.98828C72.6363 5.55895 70.7721 2.45271 71.4126 0H83.9604ZM60.644 0C60.2923 3.95172 59.2498 4.05434 56.0649 6.26953C57.4671 7.85937 58.8069 10.7892 58.1196 13.0781C57.565 14.8397 57.018 16.6095 56.4946 18.3594C55.8892 20.3003 54.7287 18.8715 53.1665 19.3086C48.5455 20.5703 42.0024 28.1205 37.2095 24.0508C37.7991 23.7186 38.1979 22.9101 38.7837 22.6016C37.6237 22.3086 36.4437 22.0312 35.2681 21.7188C36.1702 21.3906 37.0339 20.828 37.9243 20.3594C37.0339 20.25 36.2249 19.7189 35.3618 19.5898C36.924 19.2617 37.8815 18.6716 38.8345 17.3281C39.7136 16.0707 42.608 16.1015 44.0298 15.8008C41.9401 15.0704 39.7914 16.0195 37.7212 16.4688C39.4593 14.2112 41.1119 12.6015 42.6704 11.2383C40.3815 11.1016 38.6585 10.3515 36.5884 9.37891C37.3034 8.64845 39.1389 7.44119 38.8188 6.32031C38.1314 3.96879 37.5455 3.7109 39.5688 2.62109C40.6938 1.96143 42.3854 2.9102 43.5649 3.23828C45.3693 3.69889 46.1276 2.48816 47.6274 1.32031C46.4635 0.89849 45.2523 0.49993 44.0767 0.0390625C44.0845 0.0259431 44.0932 0.0131613 44.1011 0H60.644ZM66.8813 2.12109C67.4046 3.30835 66.9552 4.25008 65.8423 4.98047C65.526 4.96876 65.1937 4.94143 64.8579 4.94141C65.0454 3.58999 65.6979 2.66013 66.8813 2.12109ZM187.97 0C188.159 0.120888 188.34 0.253271 188.51 0.398438C188.359 0.300993 187.998 0.15999 187.59 0H187.97ZM64.2056 0.339844C64.0526 0.221537 63.9161 0.107814 63.7935 0H64.186C64.1925 0.11381 64.1986 0.227322 64.2056 0.339844ZM152.159 0.339844C152.135 0.225762 152.115 0.112142 152.096 0H152.207C152.191 0.113239 152.176 0.226823 152.159 0.339844Z" fill="#a794b5"/>
</svg>
